<svg id="Слой_1" data-name="Слой 1" xmlns="http://www.w3.org/2000/svg" viewBox="0 0 49.92 42.97"><defs><style>.cls-1{fill:#2cbda7;}</style></defs><title>Branding</title><path class="cls-1" d="M45.47,21.73h-.11c0-.65,0-1.31-.11-2a1.57,1.57,0,0,0-1.56-1.43H37.77V2.73A2.7,2.7,0,0,0,35.07,0H10.24a2.7,2.7,0,0,0-2.7,2.7V7.48l-6,7.09a1.93,1.93,0,0,0,.22,2.72l5,4.25a2,2,0,0,0,.76.39v2H4.76a1.92,1.92,0,0,0-1.93,1.93V41.07A1.93,1.93,0,0,0,4.76,43h29a1.94,1.94,0,0,0,1.93-1.93V39.35h4.48a2.12,2.12,0,0,0,1.92-1.19,31.11,31.11,0,0,0,1.21-2.92,8.28,8.28,0,0,0,.86.06,6.85,6.85,0,0,0,1.31-13.57ZM9.56,2.73a.68.68,0,0,1,.68-.68H35.07a.69.69,0,0,1,.68.68V18.3H28a1.57,1.57,0,0,0-1.56,1.43A38.14,38.14,0,0,0,26.35,24H9.56V21.25L17,12.51a2.07,2.07,0,0,0,.48-1.38l-.16-5.47a1.24,1.24,0,0,0-.42-.9,1.19,1.19,0,0,0-1-.3l-5.59.61a1.94,1.94,0,0,0-.75.24ZM3.13,15.81l4.41-5.2,2-2.38,1-1.15,4.75-.52.13,4.63v0L9.56,18.12,8,19.94l-.48-.41ZM7.54,26H32.08l-3.37,1.91L26.83,29l-7.66,4.36a.52.52,0,0,1-.51,0l-2-1.16h0L9.56,28l-2-1.18L6,26Zm-2.69.73,2.69,1.56,2,1.17,5.68,3.3L9.58,36.87,7.93,38.08,4.85,40.33ZM6,41l2.77-2L11,37.36l5.42-4,1.67,1a1.8,1.8,0,0,0,.87.23,1.74,1.74,0,0,0,.85-.22l2-1.14,5.64,4.12,2.77,2L32.36,41Zm27.66-3.65v3.11l-1.44-1.06,0,0-2.71-2-.3-.21-6.25-4.57,4.14-2.35,1.85-1.06,4.76-2.71Zm9.6-17a34,34,0,0,1-3,17,.11.11,0,0,1-.1.06H35.69V25.89A1.93,1.93,0,0,0,33.76,24H28.37c0-1.16,0-2.38.08-3.64m20.44,9.06a4.83,4.83,0,0,1-5,3.89,37.82,37.82,0,0,0,1.44-9.48A4.83,4.83,0,0,1,48.89,29.38Z" transform="translate(-1.08 -0.03)"/><path class="cls-1" d="M8.51,16.36a1.26,1.26,0,1,0-1.78.15,1.24,1.24,0,0,0,.81.29A1.21,1.21,0,0,0,8.51,16.36Zm-1-.87v.12A.08.08,0,0,1,7.48,15.49Z" transform="translate(-1.08 -0.03)"/><path class="cls-1" d="M20.47,7.52H33.83a.61.61,0,0,0,.61-.61.62.62,0,0,0-.61-.61H20.47a.62.62,0,0,0-.61.61A.61.61,0,0,0,20.47,7.52Z" transform="translate(-1.08 -0.03)"/><path class="cls-1" d="M20.47,10.75H33.83a.61.61,0,1,0,0-1.21H20.47a.61.61,0,1,0,0,1.21Z" transform="translate(-1.08 -0.03)"/><path class="cls-1" d="M20.47,14H33.83a.61.61,0,1,0,0-1.21H20.47a.61.61,0,1,0,0,1.21Z" transform="translate(-1.08 -0.03)"/></svg>