<svg id="Слой_1" data-name="Слой 1" xmlns="http://www.w3.org/2000/svg" viewBox="0 0 42.85 42.36"><defs><style>.cls-1{fill:#a3f244;}</style></defs><title>E-Commerce</title><path class="cls-1" d="M27.62,0A16.27,16.27,0,0,0,11.37,16.25a16.64,16.64,0,0,0,.17,2.34,1.21,1.21,0,1,0,2.39-.34c0-.31-.08-.61-.1-.92h5.6c0,.52,0,1.05.08,1.61a.73.73,0,0,0,.72.67h.06a.73.73,0,0,0,.67-.78q-.06-.78-.09-1.5H33.46c0,.48,0,1-.08,1.5a.73.73,0,0,0,.67.78h.05a.72.72,0,0,0,.72-.67c0-.56.07-1.09.09-1.61h6.5a13.85,13.85,0,0,1-3.22,7.83l-1-.8a.73.73,0,0,0-1,.1.72.72,0,0,0,.1,1l2,1.6a.75.75,0,0,0,.46.17l.16,0H39a1.2,1.2,0,0,0,.91-.42A16.25,16.25,0,0,0,27.62,0ZM16.29,8.31A19.81,19.81,0,0,0,20.06,10a26.21,26.21,0,0,0-.65,5.89H13.79A13.85,13.85,0,0,1,16.29,8.31Zm5.15,2.09a22.73,22.73,0,0,0,5.62.69,27.6,27.6,0,0,0,5.84-.65,24.77,24.77,0,0,1,.58,5.44H20.85A25.66,25.66,0,0,1,21.44,10.4Zm5.36-8,.68,0c.63.28,3.51,1.78,5.05,6.64A23.56,23.56,0,0,1,21.83,9C23.32,4.29,26.09,2.76,26.8,2.44Zm7.5,7.66A31.09,31.09,0,0,0,39,8.43a13.68,13.68,0,0,1,2.42,7.45H34.93A26.59,26.59,0,0,0,34.3,10.1Zm3.82-2.85a30.27,30.27,0,0,1-4.19,1.46,13.62,13.62,0,0,0-3.56-6A13.87,13.87,0,0,1,38.12,7.25ZM23.66,3A13.84,13.84,0,0,0,20.44,8.6,19.59,19.59,0,0,1,17.2,7.16,13.84,13.84,0,0,1,23.66,3Z" transform="translate(-1.01 0)"/><path class="cls-1" d="M33.09,21l-23.8.28L8.05,16.8a1.86,1.86,0,0,0-1.79-1.36h-4a1.21,1.21,0,0,0,0,2.42H5.84L7.18,22.7a1.82,1.82,0,0,0,.07.25l2.86,10.32a1.84,1.84,0,0,0,1,1.15,2.3,2.3,0,0,0-.14.79,2.51,2.51,0,0,0,2.51,2.51H30.17a.73.73,0,0,0,.72-.73.72.72,0,0,0-.72-.72H13.44a1.07,1.07,0,0,1-1.07-1.06,1.08,1.08,0,0,1,.18-.59H30.06a2.37,2.37,0,0,0,2.29-1.79l2.44-9.67A1.73,1.73,0,0,0,33.09,21ZM30,32.21H12.32L10,23.69l22.27-.26Z" transform="translate(-1.01 0)"/><circle class="cls-1" cx="14.05" cy="40.64" r="1.72"/><circle class="cls-1" cx="25.88" cy="40.64" r="1.72"/></svg>