<?xml version="1.0" encoding="utf-8"?>
<!-- Generator: Adobe Illustrator 24.0.1, SVG Export Plug-In . SVG Version: 6.00 Build 0)  -->
<svg version="1.1" id="Слой_1" xmlns="http://www.w3.org/2000/svg" xmlns:xlink="http://www.w3.org/1999/xlink" x="0px" y="0px"
	 viewBox="0 0 44 43" style="enable-background:new 0 0 44 43;" xml:space="preserve">
<style type="text/css">
	.st0{fill:#28E2C1;}
</style>
<g>
	<g>
		<path class="st0" d="M4.54,5.58c-0.66,0-1.2,0.54-1.2,1.2v34.95c0,0.66,0.54,1.2,1.2,1.2s1.2-0.54,1.2-1.2V6.78
			C5.74,6.12,5.2,5.58,4.54,5.58z"/>
		<circle class="st0" cx="4.68" cy="1.51" r="1.51"/>
	</g>
	<path class="st0" d="M42.04,25.54L34.05,14.8l7.21-10.75c0.41-0.61,0.45-1.4,0.1-2.05c-0.35-0.65-1.02-1.06-1.76-1.06H20.97
		c-0.66,0-1.2,0.54-1.2,1.2c0,0.04,0.02,0.08,0.02,0.12c-0.02,0.06-0.04,0.12-0.04,0.18v3.29H8.13v27.14h19.73v-4.15h12.58
		c0.76,0,1.44-0.42,1.78-1.1C42.57,26.94,42.5,26.14,42.04,25.54z M21.2,26.32V16.5c0-0.4-0.32-0.72-0.72-0.72
		c-0.4,0-0.72,0.32-0.72,0.72v10.85c-0.01,0.06-0.04,0.11-0.04,0.18c0,0.66,0.54,1.2,1.2,1.2h4.53v1.74H10.54V8.14h9.22v3.03
		c0,0.4,0.32,0.72,0.72,0.72c0.4,0,0.72-0.32,0.72-0.72V3.35h17.63L31.1,14.87l8.52,11.45H21.2z"/>
</g>
</svg>
