<svg id="Слой_1" data-name="Слой 1" xmlns="http://www.w3.org/2000/svg" viewBox="0 0 40.51 43.13"><defs><style>.cls-1{fill:#c93b8e;}</style></defs><title>Print Design</title><path class="cls-1" d="M40.73-.12H18a2.28,2.28,0,0,0-2.08,2.25V7.92H4.3A1.81,1.81,0,0,0,2.49,9.73V41.19A1.81,1.81,0,0,0,4.3,43H27.68a1.81,1.81,0,0,0,1.81-1.81V35.78H40.73A2.27,2.27,0,0,0,43,33.51V2.14A2.27,2.27,0,0,0,40.73-.12ZM18.48,3.13l5.66,4.79H18.48ZM26.9,40.41H5.07V10.51H26.9Zm13.51-7.22H29.49v-23A2.55,2.55,0,0,0,28.3,8.05L21.69,2.46H40.41Z" transform="translate(-2.49 0.13)"/><path class="cls-1" d="M33.07,14.72h4.09a1.55,1.55,0,0,0,1.55-1.56V6.41a1.55,1.55,0,0,0-1.55-1.56H33.07a1.56,1.56,0,0,0-1.56,1.56v6.75A1.56,1.56,0,0,0,33.07,14.72Zm.12-8.21,3.87,0v6.54l-3.9,0Z" transform="translate(-2.49 0.13)"/><path class="cls-1" d="M8.65,20.34H22.74a1.56,1.56,0,0,0,1.56-1.56V14.16a1.55,1.55,0,0,0-1.56-1.55H8.65a1.55,1.55,0,0,0-1.56,1.55v4.62A1.56,1.56,0,0,0,8.65,20.34Zm.12-6.08,13.88,0v4.4l-13.91,0Z" transform="translate(-2.49 0.13)"/><path class="cls-1" d="M8.65,30.59H22.74A1.56,1.56,0,0,0,24.3,29V24.42a1.56,1.56,0,0,0-1.56-1.56H8.65a1.56,1.56,0,0,0-1.56,1.56V29A1.56,1.56,0,0,0,8.65,30.59Zm.12-6.08,13.88,0v4.4l-13.91,0Z" transform="translate(-2.49 0.13)"/><path class="cls-1" d="M32,20.62h6A.83.83,0,0,0,38,19H32a.83.83,0,0,0,0,1.65Z" transform="translate(-2.49 0.13)"/><path class="cls-1" d="M32,25.2h6a.83.83,0,0,0,0-1.65H32a.83.83,0,0,0,0,1.65Z" transform="translate(-2.49 0.13)"/><path class="cls-1" d="M32,29.78h6a.83.83,0,0,0,0-1.65H32a.83.83,0,0,0,0,1.65Z" transform="translate(-2.49 0.13)"/><path class="cls-1" d="M7.58,34.78H23.52a.83.83,0,0,0,0-1.65H7.58a.83.83,0,0,0,0,1.65Z" transform="translate(-2.49 0.13)"/><path class="cls-1" d="M7.58,38.68H23.52a.83.83,0,0,0,.82-.83.82.82,0,0,0-.82-.82H7.58a.82.82,0,0,0-.82.82A.83.83,0,0,0,7.58,38.68Z" transform="translate(-2.49 0.13)"/></svg>