<?xml version="1.0" encoding="utf-8"?>
<!-- Generator: Adobe Illustrator 24.0.1, SVG Export Plug-In . SVG Version: 6.00 Build 0)  -->
<svg version="1.1" id="Icons" xmlns="http://www.w3.org/2000/svg" xmlns:xlink="http://www.w3.org/1999/xlink" x="0px" y="0px"
	 viewBox="0 0 69 47" style="enable-background:new 0 0 69 47;" xml:space="preserve">
<style type="text/css">
	.st0{fill:#FFFFFF;}
</style>
<g id="Mail_2_1_">
	<path class="st0" d="M58.59-0.08H9.55c-4.51,0-8.17,3.67-8.17,8.17v30.65c0,4.51,3.67,8.17,8.17,8.17h49.03
		c4.51,0,8.17-3.67,8.17-8.17V8.09C66.76,3.59,63.09-0.08,58.59-0.08z M62.67,38.74c0,2.25-1.83,4.09-4.09,4.09H9.55
		c-2.25,0-4.09-1.83-4.09-4.09V8.09c0-2.25,1.83-4.09,4.09-4.09h49.03c2.25,0,4.09,1.83,4.09,4.09V38.74z"/>
	<path class="st0" d="M58.12,10.89c-0.71-0.87-2-1-2.87-0.29L34.07,27.93L12.89,10.6c-0.88-0.71-2.16-0.59-2.88,0.29
		c-0.71,0.87-0.59,2.16,0.29,2.87l22.47,18.39c0.38,0.31,0.83,0.46,1.29,0.46s0.92-0.15,1.29-0.46l22.47-18.39
		C58.71,13.05,58.84,11.76,58.12,10.89z"/>
	<path class="st0" d="M49.82,27.08c-0.8-0.8-2.09-0.8-2.89,0c-0.8,0.8-0.8,2.09,0,2.89l8.17,8.17c0.4,0.4,0.92,0.6,1.44,0.6
		c0.52,0,1.05-0.2,1.44-0.6c0.8-0.8,0.8-2.09,0-2.89L49.82,27.08z"/>
	<path class="st0" d="M18.32,27.08l-8.17,8.17c-0.8,0.8-0.8,2.09,0,2.89c0.4,0.4,0.92,0.6,1.44,0.6c0.52,0,1.05-0.2,1.44-0.6
		l8.17-8.17c0.8-0.8,0.8-2.09,0-2.89C20.42,26.28,19.12,26.28,18.32,27.08z"/>
</g>
</svg>
