<?xml version="1.0" encoding="utf-8"?>
<!-- Generator: Adobe Illustrator 24.0.1, SVG Export Plug-In . SVG Version: 6.00 Build 0)  -->
<svg version="1.1" id="Capa_1" xmlns="http://www.w3.org/2000/svg" xmlns:xlink="http://www.w3.org/1999/xlink" x="0px" y="0px"
	 viewBox="0 0 38.69 39" style="enable-background:new 0 0 38.69 39;" xml:space="preserve">
<style type="text/css">
	.st0{fill:#FFFFFF;}
</style>
<path id="XMLID_1695_" class="st0" d="M19.59,38.35L19.59,38.35c-10.51,0-19.03-8.52-19.03-19.03v0c0-10.51,8.52-19.03,19.03-19.03
	h0c10.51,0,19.03,8.52,19.03,19.03v0C38.62,29.83,30.1,38.35,19.59,38.35z"/>
<path id="XMLID_1694_" d="M16.69,30.82h4.63v-11.6h3.23l0.34-3.88h-3.58c0,0,0-1.45,0-2.21c0-0.92,0.18-1.28,1.07-1.28
	c0.71,0,2.51,0,2.51,0V7.82c0,0-2.64,0-3.21,0c-3.45,0-5,1.52-5,4.42c0,2.53,0,3.1,0,3.1h-2.41v3.93h2.41V30.82z"/>
</svg>
