<?xml version="1.0" encoding="utf-8"?>
<!-- Generator: Adobe Illustrator 24.0.1, SVG Export Plug-In . SVG Version: 6.00 Build 0)  -->
<svg version="1.1" id="Capa_1" xmlns="http://www.w3.org/2000/svg" xmlns:xlink="http://www.w3.org/1999/xlink" x="0px" y="0px"
	 viewBox="0 0 38.69 39" style="enable-background:new 0 0 38.69 39;" xml:space="preserve">
<style type="text/css">
	.st0{fill:#FFFFFF;}
</style>
<path id="XMLID_1713_" class="st0" d="M19.7,38.44L19.7,38.44c-10.51,0-19.03-8.52-19.03-19.03v0C0.67,8.9,9.19,0.38,19.7,0.38l0,0
	c10.51,0,19.03,8.52,19.03,19.03v0C38.73,29.92,30.21,38.44,19.7,38.44z"/>
<g id="XMLID_1708_">
	<g id="XMLID_1710_">
		<rect id="XMLID_1712_" x="11.07" y="15.17" width="3.94" height="12.72"/>
		<path id="XMLID_1711_" d="M13.02,13.5c1.29,0,2.33-1.05,2.33-2.35S14.31,8.8,13.02,8.8c-1.29,0-2.33,1.05-2.33,2.35
			S11.74,13.5,13.02,13.5z"/>
	</g>
	<path id="XMLID_1709_" d="M21.31,21.21c0-1.79,0.82-2.85,2.4-2.85c1.45,0,2.14,1.02,2.14,2.85c0,1.83,0,6.68,0,6.68h3.92
		c0,0,0-4.65,0-8.06c0-3.41-1.93-5.06-4.63-5.06c-2.7,0-3.83,2.1-3.83,2.1v-1.71h-3.78v12.72h3.78
		C21.31,27.89,21.31,23.17,21.31,21.21z"/>
</g>
</svg>
