<?xml version="1.0" encoding="utf-8"?>
<!-- Generator: Adobe Illustrator 24.0.1, SVG Export Plug-In . SVG Version: 6.00 Build 0)  -->
<svg version="1.1" id="Capa_1" xmlns="http://www.w3.org/2000/svg" xmlns:xlink="http://www.w3.org/1999/xlink" x="0px" y="0px"
	 viewBox="0 0 38.69 39" style="enable-background:new 0 0 38.69 39;" xml:space="preserve">
<style type="text/css">
	.st0{fill:#FFFFFF;}
</style>
<path id="XMLID_1692_" class="st0" d="M19.22,38.51L19.22,38.51c-10.51,0-19.03-8.52-19.03-19.03v0c0-10.51,8.52-19.03,19.03-19.03
	l0,0c10.51,0,19.03,8.52,19.03,19.03v0C38.25,29.99,29.73,38.51,19.22,38.51z"/>
<g id="XMLID_1684_">
	<path id="XMLID_1689_" d="M19.22,10.92c2.79,0,3.12,0.01,4.22,0.06c1.02,0.05,1.57,0.22,1.94,0.36c0.49,0.19,0.83,0.42,1.2,0.78
		c0.37,0.37,0.59,0.71,0.78,1.2c0.14,0.37,0.31,0.92,0.36,1.94c0.05,1.1,0.06,1.43,0.06,4.22s-0.01,3.12-0.06,4.22
		c-0.05,1.02-0.22,1.57-0.36,1.94c-0.19,0.49-0.42,0.83-0.78,1.2c-0.36,0.36-0.71,0.59-1.2,0.78c-0.37,0.14-0.92,0.31-1.94,0.36
		c-1.1,0.05-1.43,0.06-4.22,0.06c-2.79,0-3.12-0.01-4.22-0.06c-1.02-0.05-1.57-0.22-1.94-0.36c-0.49-0.19-0.83-0.42-1.2-0.78
		c-0.36-0.37-0.59-0.71-0.78-1.2c-0.14-0.37-0.31-0.92-0.36-1.94c-0.05-1.1-0.06-1.43-0.06-4.22s0.01-3.12,0.06-4.22
		c0.05-1.02,0.22-1.57,0.36-1.94c0.19-0.49,0.42-0.83,0.78-1.2c0.37-0.37,0.71-0.59,1.2-0.78c0.37-0.14,0.92-0.31,1.94-0.36
		C16.1,10.94,16.43,10.92,19.22,10.92 M19.22,9.04c-2.83,0-3.19,0.01-4.3,0.06c-1.11,0.05-1.87,0.23-2.53,0.49
		c-0.69,0.27-1.27,0.62-1.85,1.2s-0.94,1.16-1.2,1.85c-0.26,0.66-0.43,1.42-0.48,2.53c-0.05,1.11-0.06,1.47-0.06,4.3
		c0,2.83,0.01,3.19,0.06,4.3c0.05,1.11,0.23,1.87,0.48,2.53c0.27,0.69,0.62,1.27,1.2,1.85c0.58,0.58,1.16,0.94,1.85,1.2
		c0.66,0.26,1.42,0.43,2.53,0.48c1.11,0.05,1.47,0.06,4.3,0.06c2.83,0,3.19-0.01,4.3-0.06c1.11-0.05,1.87-0.23,2.53-0.48
		c0.69-0.27,1.27-0.62,1.85-1.2c0.58-0.58,0.94-1.16,1.2-1.85c0.26-0.66,0.43-1.42,0.49-2.53c0.05-1.11,0.06-1.47,0.06-4.3
		c0-2.83-0.01-3.19-0.06-4.3c-0.05-1.11-0.23-1.87-0.49-2.53c-0.27-0.69-0.62-1.27-1.2-1.85c-0.58-0.58-1.16-0.94-1.85-1.2
		c-0.66-0.26-1.42-0.43-2.53-0.49C22.41,9.06,22.05,9.04,19.22,9.04"/>
	<path id="XMLID_1686_" d="M19.22,14.12c-2.96,0-5.36,2.4-5.36,5.36c0,2.96,2.4,5.36,5.36,5.36c2.96,0,5.36-2.4,5.36-5.36
		C24.58,16.52,22.18,14.12,19.22,14.12 M19.22,22.96c-1.92,0-3.48-1.56-3.48-3.48c0-1.92,1.56-3.48,3.48-3.48s3.48,1.56,3.48,3.48
		C22.7,21.4,21.14,22.96,19.22,22.96"/>
	<path id="XMLID_1685_" d="M26.04,13.91c0,0.69-0.56,1.25-1.25,1.25c-0.69,0-1.25-0.56-1.25-1.25c0-0.69,0.56-1.25,1.25-1.25
		C25.48,12.66,26.04,13.22,26.04,13.91"/>
</g>
</svg>
