<?xml version="1.0" encoding="utf-8"?>
<!-- Generator: Adobe Illustrator 24.0.1, SVG Export Plug-In . SVG Version: 6.00 Build 0)  -->
<svg version="1.1" id="Icons" xmlns="http://www.w3.org/2000/svg" xmlns:xlink="http://www.w3.org/1999/xlink" x="0px" y="0px"
	 viewBox="0 0 69 47" style="enable-background:new 0 0 69 47;" xml:space="preserve">
<style type="text/css">
	.st0{fill:#FFFFFF;}
</style>
<g id="Phone">
	<path class="st0" d="M56.9,21.27C52.98,12.26,45.94,5.25,37.07,1.54c-0.74-0.31-1.58,0.06-1.88,0.82c-0.3,0.76,0.06,1.63,0.79,1.94
		c8.17,3.42,14.66,9.88,18.28,18.19c0.24,0.55,0.77,0.88,1.32,0.88c0.2,0,0.4-0.04,0.59-0.13C56.9,22.9,57.23,22.02,56.9,21.27z"/>
	<path class="st0" d="M35.23,12.24c4.96,2.07,8.89,5.98,11.09,11.01c0.23,0.53,0.74,0.85,1.27,0.85c0.19,0,0.39-0.04,0.57-0.13
		c0.7-0.32,1.02-1.17,0.7-1.9c-2.49-5.71-6.96-10.14-12.58-12.5c-0.72-0.3-1.53,0.06-1.82,0.79C34.17,11.1,34.51,11.94,35.23,12.24z
		"/>
	<path class="st0" d="M49.32,29.61c-0.79-0.78-1.68-1.17-2.57-1.17s-1.78,0.39-2.57,1.17c-1.2,1.19-2.4,2.38-3.59,3.6
		c-0.2,0.2-0.38,0.31-0.58,0.31c-0.13,0-0.26-0.04-0.41-0.13c-0.78-0.42-1.61-0.77-2.35-1.23c-3.49-2.19-6.4-5.01-8.99-8.18
		c-1.28-1.58-2.42-3.26-3.22-5.16c-0.16-0.38-0.13-0.64,0.18-0.95c1.2-1.16,2.37-2.35,3.56-3.55c1.65-1.66,1.65-3.6-0.01-5.26
		c-0.94-0.95-1.88-1.88-2.82-2.83c-0.97-0.97-1.93-1.95-2.91-2.91c-0.79-0.77-1.68-1.16-2.57-1.16c-0.89,0-1.78,0.39-2.57,1.17
		c-1.21,1.19-2.37,2.41-3.61,3.59c-1.14,1.08-1.72,2.4-1.84,3.95c-0.19,2.52,0.42,4.89,1.29,7.2c1.78,4.79,4.48,9.04,7.77,12.94
		c4.43,5.27,9.73,9.44,15.92,12.46c2.79,1.35,5.68,2.39,8.82,2.57c0.19,0.01,0.38,0.02,0.57,0.02c1.92,0,3.61-0.59,4.98-2.13
		c1.03-1.15,2.19-2.2,3.28-3.3c1.62-1.64,1.63-3.62,0.02-5.23C53.18,33.45,51.25,31.53,49.32,29.61z M53,38.55
		c-0.36,0.36-0.73,0.72-1.1,1.08c-0.76,0.74-1.54,1.5-2.29,2.34c-0.72,0.81-1.56,1.15-2.8,1.15c-0.13,0-0.27,0-0.41-0.01
		c-2.35-0.13-4.72-0.83-7.7-2.28c-5.74-2.79-10.77-6.73-14.96-11.71c-3.35-3.98-5.72-7.92-7.27-12.08c-0.9-2.4-1.25-4.24-1.12-5.94
		c0.07-0.87,0.36-1.51,0.94-2.06c0.76-0.72,1.5-1.47,2.23-2.21c0.47-0.47,0.93-0.94,1.41-1.42c0.26-0.26,0.45-0.32,0.52-0.32
		c0.07,0,0.26,0.07,0.52,0.32c0.64,0.63,1.28,1.27,1.91,1.91l0.96,0.97c0.48,0.48,0.96,0.96,1.43,1.44
		c0.46,0.46,0.92,0.92,1.39,1.39c0.54,0.54,0.51,0.64,0.01,1.14l-0.49,0.5c-1,1.01-2,2.02-3.05,3.04c-1.14,1.14-1.44,2.66-0.81,4.15
		c0.82,1.96,1.98,3.83,3.65,5.88c3.05,3.74,6.22,6.62,9.71,8.82c0.58,0.36,1.16,0.64,1.67,0.9c0.28,0.14,0.56,0.27,0.79,0.4
		c0.6,0.34,1.22,0.51,1.85,0.51c0.69,0,1.72-0.21,2.67-1.19c1.16-1.19,2.33-2.35,3.55-3.56c0.26-0.26,0.44-0.32,0.51-0.32
		c0.06,0,0.25,0.07,0.51,0.32c1.93,1.92,3.85,3.83,5.77,5.76C53.47,37.89,53.51,38.03,53,38.55z"/>
</g>
</svg>
