<?xml version="1.0" encoding="utf-8"?>
<!-- Generator: Adobe Illustrator 24.0.1, SVG Export Plug-In . SVG Version: 6.00 Build 0)  -->
<svg version="1.1" id="Capa_1" xmlns="http://www.w3.org/2000/svg" xmlns:xlink="http://www.w3.org/1999/xlink" x="0px" y="0px"
	 viewBox="0 0 38.69 39" style="enable-background:new 0 0 38.69 39;" xml:space="preserve">
<style type="text/css">
	.st0{fill:#FFFFFF;}
</style>
<path id="XMLID_1725_" class="st0" d="M19.32,38.53L19.32,38.53c-10.51,0-19.03-8.52-19.03-19.03v0c0-10.51,8.52-19.03,19.03-19.03
	l0,0c10.51,0,19.03,8.52,19.03,19.03v0C38.35,30.01,29.83,38.53,19.32,38.53z"/>
<path id="XMLID_1724_" d="M9.18,25.87c1.84,1.18,4.03,1.87,6.38,1.87c7.72,0,12.09-6.52,11.83-12.38c0.81-0.59,1.52-1.32,2.08-2.15
	c-0.75,0.33-1.55,0.55-2.39,0.65c0.86-0.51,1.52-1.33,1.83-2.3c-0.8,0.48-1.69,0.82-2.64,1.01c-0.76-0.81-1.84-1.31-3.04-1.31
	c-2.69,0-4.66,2.51-4.05,5.11c-3.46-0.17-6.52-1.83-8.57-4.35c-1.09,1.87-0.57,4.32,1.29,5.56c-0.68-0.02-1.32-0.21-1.89-0.52
	c-0.04,1.93,1.34,3.73,3.34,4.13c-0.59,0.16-1.23,0.2-1.88,0.07c0.53,1.65,2.07,2.86,3.89,2.89C13.59,25.52,11.39,26.13,9.18,25.87z
	"/>
</svg>
