<svg id="Слой_1" data-name="Слой 1" xmlns="http://www.w3.org/2000/svg" viewBox="0 0 42.21 42.61"><defs><style>.cls-1{fill:#ac88fc;}</style></defs><title>Illustration</title><path class="cls-1" d="M11.08.92,1.9,10.1a2.22,2.22,0,0,0,0,3.14L29.33,40.67l11.41,2.17a2.3,2.3,0,0,0,2-.62h0a2.3,2.3,0,0,0,.64-2L41.27,28,14.22.92A2.22,2.22,0,0,0,11.08.92ZM6.36,9.5l6.08,6.09a.82.82,0,0,0,1.16-1.16L7.51,8.35l2-2L24.86,21.64a.81.81,0,0,0,1.15,0,.82.82,0,0,0,0-1.16L10.7,5.17l2-2L38.46,29l-2,2-6.11-6.11a.82.82,0,0,0-1.16,0,.81.81,0,0,0,0,1.15l6.11,6.12-2,2L18,18.8A.82.82,0,0,0,16.81,20L32.16,35.31,30,37.48,4.19,11.67ZM39.58,34.07l-4.85,4.85-3.24-.62L39,30.79Zm1.05,6-4-.75L39.92,36Z" transform="translate(-1.25 -0.27)"/></svg>