<svg id="Слой_1" data-name="Слой 1" xmlns="http://www.w3.org/2000/svg" viewBox="0 0 38.01 43.28"><defs><style>.cls-1{fill:#f6a942;}</style></defs><title>Packaging</title><path class="cls-1" d="M40.1,39.1,36.85,13.46a3,3,0,0,0-3-2.66h0l-4.54.06v-3a8,8,0,1,0-16,0v3.19l-5.17.07a3,3,0,0,0-3,2.69L2.14,39.14a3.56,3.56,0,0,0,3.55,4H36.55a3.58,3.58,0,0,0,3.55-4ZM29.38,37.54a.85.85,0,0,0-.85-.85H5.09L7.72,14.11a.37.37,0,0,1,.38-.34l5.13-.07v1.65a4.28,4.28,0,0,0,1.11,8.42.85.85,0,1,0,0-1.69,2.6,2.6,0,0,1-1.11-4.94v3a.85.85,0,1,0,1.69,0V17a2.59,2.59,0,0,1,2,2.53.85.85,0,0,0,1.69,0,4.28,4.28,0,0,0-3.71-4.25V13.68l12.65-.15v1.73a4.28,4.28,0,0,0,.69,8.51.85.85,0,0,0,0-1.69,2.6,2.6,0,0,1-.69-5.1V20.1a.85.85,0,1,0,1.69,0v-3a2.61,2.61,0,0,1,1.59,2.4.85.85,0,0,0,1.69,0,4.31,4.31,0,0,0-3.28-4.17V13.51l4.58-.06a.4.4,0,0,1,.38.34l2.9,22.9H32.91a.85.85,0,1,0,0,1.69h4.43l.13,1.06a.94.94,0,0,1-.22.72.91.91,0,0,1-.7.32H5.69a.93.93,0,0,1-.92-1l.13-1.07H28.53A.85.85,0,0,0,29.38,37.54ZM14.92,11V7.86a6.33,6.33,0,1,1,12.65,0v3Z" transform="translate(-2.12 0.16)"/></svg>