<svg id="Слой_1" data-name="Слой 1" xmlns="http://www.w3.org/2000/svg" viewBox="0 0 42.71 42.43"><defs><style>.cls-1{fill:#a4f344;}</style></defs><title>Web Design</title><path class="cls-1" d="M1,5.28V30a4.71,4.71,0,0,0,4.71,4.71H16.23v5.71H12.77a1.28,1.28,0,0,0,0,2.55h20a1.28,1.28,0,0,0,0-2.55H28.33V34.74H39A4.71,4.71,0,0,0,43.71,30V5.28A4.71,4.71,0,0,0,39,.57H5.71A4.71,4.71,0,0,0,1,5.28Zm40.16,0V6H3.55V5.28A2.16,2.16,0,0,1,5.71,3.12H39A2.16,2.16,0,0,1,41.16,5.28ZM18.78,34.74h7v5.71h-7ZM3.55,30V27.88H28.84a.77.77,0,1,0,0-1.53H3.55V7.57H41.16V26.35H35a.77.77,0,1,0,0,1.53h6.19V30a2.13,2.13,0,0,1-1.72,2.16H6.14C4.52,32.19,3.55,31.22,3.55,30Z" transform="translate(-1 -0.57)"/></svg>