<?xml version="1.0" encoding="utf-8"?>
<!-- Generator: Adobe Illustrator 24.0.1, SVG Export Plug-In . SVG Version: 6.00 Build 0)  -->
<svg version="1.1" id="Слой_1" xmlns="http://www.w3.org/2000/svg" xmlns:xlink="http://www.w3.org/1999/xlink" x="0px" y="0px"
	 viewBox="0 0 55 42" style="enable-background:new 0 0 55 42;" xml:space="preserve">
<style type="text/css">
	.st0{fill:#000000;}
</style>
<path class="st0" d="M51,9.15H4c-2.21,0-4-1.79-4-4V5c0-2.21,1.79-4,4-4h47c2.21,0,4,1.79,4,4v0.15C55,7.36,53.21,9.15,51,9.15z"/>
<path class="st0" d="M51,24.94H4c-2.21,0-4-1.79-4-4v-0.15c0-2.21,1.79-4,4-4h47c2.21,0,4,1.79,4,4v0.15
	C55,23.14,53.21,24.94,51,24.94z"/>
<path class="st0" d="M51,40.72H4c-2.21,0-4-1.79-4-4v-0.15c0-2.21,1.79-4,4-4h47c2.21,0,4,1.79,4,4v0.15
	C55,38.93,53.21,40.72,51,40.72z"/>
</svg>
