<?xml version="1.0" encoding="utf-8"?>
<!-- Generator: Adobe Illustrator 24.0.1, SVG Export Plug-In . SVG Version: 6.00 Build 0)  -->
<svg version="1.1" id="Слой_1" xmlns="http://www.w3.org/2000/svg" xmlns:xlink="http://www.w3.org/1999/xlink" x="0px" y="0px"
	 viewBox="0 0 644.85 202.26" style="enable-background:new 0 0 644.85 202.26;" xml:space="preserve">
<style type="text/css">
	.st0{fill:#0C0C0C;}
</style>
<path class="st0" d="M26.96,28.66v46.11c0,2.67,3.22,4.02,5.12,2.14l44.44-43.92c2.22-2.19,5.2-3.42,8.32-3.42h70.87L95.76,90.89
	l59.96,60.35H84.79c-3.08,0-6.04-1.2-8.25-3.35l-44.47-43.26c-1.91-1.85-5.1-0.5-5.1,2.16v45.37c0,3.86,3.13,6.99,6.99,6.99h123.5
	c3.86,0,6.99-3.13,6.99-6.99V28.66c0-3.86-3.13-6.99-6.99-6.99H33.96C30.09,21.67,26.96,24.8,26.96,28.66z"/>
<polyline class="st0" points="257.5,104.97 301.26,158.64 260.59,158.64 227.82,112.31 227.82,158.07 196.18,158.07 196.18,24.74 
	227.82,24.74 227.82,100.97 257.46,55.81 297.01,55.81 "/>
<g>
	<path class="st0" d="M321.46,117.12c0.85,13.38,14.22,19.74,29.3,19.74c11.04,0,19.96-1.49,28.66-4.46l4.25,21.87
		c-10.61,4.46-23.56,6.58-37.58,6.58c-35.24,0-55.41-20.38-55.41-52.86c0-26.33,16.35-55.41,52.44-55.41
		c33.54,0,46.28,26.11,46.28,51.8c0,5.52-0.64,10.4-1.06,12.74H321.46z M359.46,95.04c0-7.86-3.4-21.02-18.26-21.02
		c-13.59,0-19.11,12.53-19.96,21.02H359.46z"/>
	<polygon class="st0" points="459.94,54.92 440.2,120.37 420.24,54.92 385.21,54.92 423,158.73 455.27,158.73 493.91,54.92 	"/>
	<path class="st0" d="M596.85,105.66c0,38-26.96,55.41-54.77,55.41c-30.36,0-53.71-19.96-53.71-53.5c0-33.75,22.08-55.2,55.62-55.2
		C575.62,52.37,596.85,74.24,596.85,105.66z M521.69,106.72c0,17.83,7.43,31.21,21.23,31.21c12.74,0,20.59-12.53,20.59-31.42
		c0-15.29-5.94-31-20.59-31C527.64,75.51,521.69,91.43,521.69,106.72z"/>
</g>
</svg>
